<?xml version="1.0" standalone="no"?>
<!DOCTYPE svg PUBLIC "-//W3C//DTD SVG 20010904//EN"
 "http://www.w3.org/TR/2001/REC-SVG-20010904/DTD/svg10.dtd">
<svg version="1.0" xmlns="http://www.w3.org/2000/svg"
 width="200.000000pt" height="200.000000pt" viewBox="0 0 200.000000 200.000000"
 preserveAspectRatio="xMidYMid meet">
<metadata>
Created by potrace 1.11, written by Peter Selinger 2001-2013
</metadata><g><rect x="0" y="0" width="200" height="200" fill="#ffffff" />
<g transform="translate(0.000000,200.000000) scale(0.020325,-0.020325)"
fill="#000000" stroke="none">
<path d="M0 9000 l0 -840 840 0 840 0 0 840 0 840 -840 0 -840 0 0 -840z
m1440 0 l0 -600 -600 0 -600 0 0 600 0 600 600 0 600 0 0 -600z"/>
<path d="M480 9000 l0 -360 360 0 360 0 0 360 0 360 -360 0 -360 0 0 -360z"/>
<path d="M2160 9360 l0 -480 -120 0 -120 0 0 -120 0 -120 120 0 120 0 0 -120
0 -120 -120 0 -120 0 0 -240 0 -240 -240 0 -240 0 0 -120 0 -120 120 0 120 0
0 -120 0 -120 -120 0 -120 0 0 -120 0 -120 -120 0 -120 0 0 -120 0 -120 -120
0 -120 0 0 -120 0 -120 -120 0 -120 0 0 120 0 120 -120 0 -120 0 0 120 0 120
120 0 120 0 0 120 0 120 240 0 240 0 0 120 0 120 -120 0 -120 0 0 120 0 120
-240 0 -240 0 0 -240 0 -240 -120 0 -120 0 0 120 0 120 -120 0 -120 0 0 -120
0 -120 120 0 120 0 0 -120 0 -120 -120 0 -120 0 0 -240 0 -240 120 0 120 0 0
-120 0 -120 120 0 120 0 0 120 0 120 120 0 120 0 0 -120 0 -120 120 0 120 0 0
-480 0 -480 -120 0 -120 0 0 120 0 120 -240 0 -240 0 0 120 0 120 120 0 120 0
0 120 0 120 -240 0 -240 0 0 -240 0 -240 120 0 120 0 0 -240 0 -240 -120 0
-120 0 0 -120 0 -120 120 0 120 0 0 -120 0 -120 120 0 120 0 0 120 0 120 120
0 120 0 0 120 0 120 120 0 120 0 0 120 0 120 120 0 120 0 0 -240 0 -240 -120
0 -120 0 0 -120 0 -120 120 0 120 0 0 -120 0 -120 -240 0 -240 0 0 -120 0
-120 480 0 480 0 0 120 0 120 -120 0 -120 0 0 120 0 120 360 0 360 0 0 -120 0
-120 -120 0 -120 0 0 -120 0 -120 240 0 240 0 0 -120 0 -120 -120 0 -120 0 0
-120 0 -120 -240 0 -240 0 0 120 0 120 -600 0 -600 0 0 120 0 120 -120 0 -120
0 0 -120 0 -120 -120 0 -120 0 0 -120 0 -120 360 0 360 0 0 -240 0 -240 -240
0 -240 0 0 -120 0 -120 -120 0 -120 0 0 -120 0 -120 360 0 360 0 0 -120 0
-120 -120 0 -120 0 0 -240 0 -240 -120 0 -120 0 0 -120 0 -120 120 0 120 0 0
120 0 120 120 0 120 0 0 120 0 120 120 0 120 0 0 -240 0 -240 120 0 120 0 0
120 0 120 120 0 120 0 0 -120 0 -120 120 0 120 0 0 120 0 120 240 0 240 0 0
-120 0 -120 -120 0 -120 0 0 -240 0 -240 120 0 120 0 0 -120 0 -120 240 0 240
0 0 -120 0 -120 -360 0 -360 0 0 -240 0 -240 240 0 240 0 0 -120 0 -120 240 0
240 0 0 -120 0 -120 120 0 120 0 0 120 0 120 120 0 120 0 0 -120 0 -120 120 0
120 0 0 120 0 120 120 0 120 0 0 -120 0 -120 240 0 240 0 0 120 0 120 120 0
120 0 0 120 0 120 120 0 120 0 0 -120 0 -120 240 0 240 0 0 -120 0 -120 600 0
600 0 0 120 0 120 120 0 120 0 0 -120 0 -120 120 0 120 0 0 240 0 240 240 0
240 0 0 -120 0 -120 -120 0 -120 0 0 -120 0 -120 480 0 480 0 0 120 0 120
-120 0 -120 0 0 240 0 240 -120 0 -120 0 0 -120 0 -120 -120 0 -120 0 0 120 0
120 -240 0 -240 0 0 -120 0 -120 -240 0 -240 0 0 120 0 120 120 0 120 0 0 120
0 120 -120 0 -120 0 0 120 0 120 120 0 120 0 0 120 0 120 120 0 120 0 0 -120
0 -120 120 0 120 0 0 120 0 120 120 0 120 0 0 -120 0 -120 120 0 120 0 0 -120
0 -120 480 0 480 0 0 -120 0 -120 -120 0 -120 0 0 -120 0 -120 120 0 120 0 0
-120 0 -120 120 0 120 0 0 -120 0 -120 120 0 120 0 0 240 0 240 -240 0 -240 0
0 120 0 120 240 0 240 0 0 120 0 120 120 0 120 0 0 -120 0 -120 120 0 120 0 0
-120 0 -120 -120 0 -120 0 0 -240 0 -240 120 0 120 0 0 240 0 240 120 0 120 0
0 240 0 240 -120 0 -120 0 0 360 0 360 120 0 120 0 0 240 0 240 -240 0 -240 0
0 240 0 240 -120 0 -120 0 0 480 0 480 120 0 120 0 0 -120 0 -120 120 0 120 0
0 -120 0 -120 120 0 120 0 0 360 0 360 -480 0 -480 0 0 -120 0 -120 -240 0
-240 0 0 120 0 120 -120 0 -120 0 0 -120 0 -120 -120 0 -120 0 0 120 0 120
-240 0 -240 0 0 -360 0 -360 -120 0 -120 0 0 -120 0 -120 120 0 120 0 0 -120
0 -120 240 0 240 0 0 -120 0 -120 -240 0 -240 0 0 -240 0 -240 -120 0 -120 0
0 240 0 240 -120 0 -120 0 0 480 0 480 120 0 120 0 0 360 0 360 -120 0 -120 0
0 -120 0 -120 -240 0 -240 0 0 120 0 120 120 0 120 0 0 120 0 120 -120 0 -120
0 0 240 0 240 120 0 120 0 0 -120 0 -120 120 0 120 0 0 240 0 240 360 0 360 0
0 120 0 120 -240 0 -240 0 0 120 0 120 120 0 120 0 0 240 0 240 120 0 120 0 0
-240 0 -240 120 0 120 0 0 -360 0 -360 -360 0 -360 0 0 -120 0 -120 240 0 240
0 0 -120 0 -120 120 0 120 0 0 -120 0 -120 360 0 360 0 0 120 0 120 -360 0
-360 0 0 240 0 240 120 0 120 0 0 -120 0 -120 360 0 360 0 0 -120 0 -120 120
0 120 0 0 120 0 120 120 0 120 0 0 -120 0 -120 120 0 120 0 0 120 0 120 120 0
120 0 0 240 0 240 -240 0 -240 0 0 120 0 120 -120 0 -120 0 0 480 0 480 120 0
120 0 0 -240 0 -240 240 0 240 0 0 120 0 120 -120 0 -120 0 0 120 0 120 120 0
120 0 0 240 0 240 -120 0 -120 0 0 120 0 120 120 0 120 0 0 120 0 120 -120 0
-120 0 0 -120 0 -120 -360 0 -360 0 0 120 0 120 -120 0 -120 0 0 -120 0 -120
-120 0 -120 0 0 -120 0 -120 -240 0 -240 0 0 240 0 240 -120 0 -120 0 0 -120
0 -120 -120 0 -120 0 0 -240 0 -240 -120 0 -120 0 0 240 0 240 -120 0 -120 0
0 -120 0 -120 -120 0 -120 0 0 120 0 120 -120 0 -120 0 0 -120 0 -120 120 0
120 0 0 -120 0 -120 -120 0 -120 0 0 -120 0 -120 -240 0 -240 0 0 120 0 120
-120 0 -120 0 0 240 0 240 -120 0 -120 0 0 120 0 120 240 0 240 0 0 -120 0
-120 120 0 120 0 0 120 0 120 -120 0 -120 0 0 240 0 240 240 0 240 0 0 120 0
120 -120 0 -120 0 0 120 0 120 120 0 120 0 0 240 0 240 360 0 360 0 0 120 0
120 -120 0 -120 0 0 120 0 120 -120 0 -120 0 0 120 0 120 240 0 240 0 0 120 0
120 240 0 240 0 0 -240 0 -240 -120 0 -120 0 0 -360 0 -360 -120 0 -120 0 0
-120 0 -120 -120 0 -120 0 0 120 0 120 -120 0 -120 0 0 -120 0 -120 120 0 120
0 0 -120 0 -120 -120 0 -120 0 0 -360 0 -360 120 0 120 0 0 120 0 120 120 0
120 0 0 -120 0 -120 120 0 120 0 0 120 0 120 720 0 720 0 0 240 0 240 -120 0
-120 0 0 -120 0 -120 -120 0 -120 0 0 120 0 120 -240 0 -240 0 0 360 0 360
-120 0 -120 0 0 240 0 240 120 0 120 0 0 360 0 360 -360 0 -360 0 0 -120 0
-120 -120 0 -120 0 0 120 0 120 -120 0 -120 0 0 -240 0 -240 -120 0 -120 0 0
120 0 120 -120 0 -120 0 0 -120 0 -120 -120 0 -120 0 0 -120 0 -120 360 0 360
0 0 -120 0 -120 -120 0 -120 0 0 -120 0 -120 -240 0 -240 0 0 120 0 120 -120
0 -120 0 0 120 0 120 -120 0 -120 0 0 360 0 360 -360 0 -360 0 0 -120 0 -120
120 0 120 0 0 -120 0 -120 120 0 120 0 0 -120 0 -120 120 0 120 0 0 -120 0
-120 -240 0 -240 0 0 120 0 120 -120 0 -120 0 0 120 0 120 -120 0 -120 0 0
120 0 120 -120 0 -120 0 0 -120 0 -120 -120 0 -120 0 0 240 0 240 -240 0 -240
0 0 -120 0 -120 -120 0 -120 0 0 120 0 120 -120 0 -120 0 0 -120 0 -120 120 0
120 0 0 -120 0 -120 -120 0 -120 0 0 -120 0 -120 -120 0 -120 0 0 -120 0 -120
-120 0 -120 0 0 120 0 120 -120 0 -120 0 0 360 0 360 -120 0 -120 0 0 -480z
m1920 -120 l0 -120 120 0 120 0 0 -120 0 -120 -120 0 -120 0 0 -120 0 -120
-120 0 -120 0 0 -240 0 -240 120 0 120 0 0 120 0 120 120 0 120 0 0 120 0 120
120 0 120 0 0 240 0 240 120 0 120 0 0 -240 0 -240 360 0 360 0 0 120 0 120
120 0 120 0 0 -120 0 -120 120 0 120 0 0 -120 0 -120 120 0 120 0 0 -120 0
-120 -120 0 -120 0 0 -240 0 -240 -120 0 -120 0 0 -120 0 -120 -120 0 -120 0
0 -120 0 -120 -240 0 -240 0 0 120 0 120 -120 0 -120 0 0 120 0 120 120 0 120
0 0 360 0 360 -120 0 -120 0 0 -120 0 -120 -120 0 -120 0 0 -120 0 -120 -120
0 -120 0 0 120 0 120 -120 0 -120 0 0 -240 0 -240 120 0 120 0 0 -240 0 -240
240 0 240 0 0 -240 0 -240 120 0 120 0 0 120 0 120 120 0 120 0 0 -120 0 -120
120 0 120 0 0 -120 0 -120 120 0 120 0 0 -360 0 -360 -240 0 -240 0 0 -240 0
-240 120 0 120 0 0 120 0 120 120 0 120 0 0 -240 0 -240 240 0 240 0 0 -360 0
-360 120 0 120 0 0 -120 0 -120 -120 0 -120 0 0 120 0 120 -360 0 -360 0 0
-120 0 -120 120 0 120 0 0 -120 0 -120 360 0 360 0 0 -120 0 -120 120 0 120 0
0 -120 0 -120 -120 0 -120 0 0 -120 0 -120 120 0 120 0 0 -240 0 -240 -120 0
-120 0 0 -120 0 -120 240 0 240 0 0 -120 0 -120 -120 0 -120 0 0 -360 0 -360
-120 0 -120 0 0 360 0 360 -120 0 -120 0 0 240 0 240 -120 0 -120 0 0 120 0
120 -120 0 -120 0 0 -240 0 -240 120 0 120 0 0 -240 0 -240 120 0 120 0 0
-120 0 -120 -120 0 -120 0 0 -240 0 -240 120 0 120 0 0 -240 0 -240 -120 0
-120 0 0 -120 0 -120 -360 0 -360 0 0 240 0 240 -120 0 -120 0 0 120 0 120
-120 0 -120 0 0 -240 0 -240 -240 0 -240 0 0 120 0 120 -120 0 -120 0 0 -120
0 -120 -120 0 -120 0 0 -120 0 -120 -120 0 -120 0 0 -120 0 -120 -120 0 -120
0 0 240 0 240 240 0 240 0 0 120 0 120 120 0 120 0 0 120 0 120 240 0 240 0 0
120 0 120 -240 0 -240 0 0 120 0 120 240 0 240 0 0 -120 0 -120 120 0 120 0 0
120 0 120 120 0 120 0 0 -240 0 -240 120 0 120 0 0 120 0 120 120 0 120 0 0
120 0 120 120 0 120 0 0 360 0 360 -240 0 -240 0 0 120 0 120 120 0 120 0 0
120 0 120 -240 0 -240 0 0 -120 0 -120 -240 0 -240 0 0 240 0 240 -120 0 -120
0 0 -360 0 -360 360 0 360 0 0 -120 0 -120 240 0 240 0 0 -120 0 -120 -480 0
-480 0 0 120 0 120 -120 0 -120 0 0 -120 0 -120 -120 0 -120 0 0 480 0 480
-120 0 -120 0 0 -240 0 -240 -120 0 -120 0 0 240 0 240 120 0 120 0 0 120 0
120 120 0 120 0 0 120 0 120 -240 0 -240 0 0 120 0 120 -120 0 -120 0 0 120 0
120 -240 0 -240 0 0 -120 0 -120 120 0 120 0 0 -120 0 -120 120 0 120 0 0
-240 0 -240 -240 0 -240 0 0 -240 0 -240 120 0 120 0 0 -120 0 -120 240 0 240
0 0 -120 0 -120 120 0 120 0 0 -120 0 -120 -120 0 -120 0 0 -120 0 -120 120 0
120 0 0 -120 0 -120 -120 0 -120 0 0 120 0 120 -120 0 -120 0 0 240 0 240
-240 0 -240 0 0 -120 0 -120 -240 0 -240 0 0 -120 0 -120 -120 0 -120 0 0 120
0 120 120 0 120 0 0 480 0 480 120 0 120 0 0 120 0 120 120 0 120 0 0 120 0
120 -240 0 -240 0 0 -120 0 -120 -120 0 -120 0 0 -240 0 -240 -120 0 -120 0 0
240 0 240 -120 0 -120 0 0 -120 0 -120 -120 0 -120 0 0 -120 0 -120 120 0 120
0 0 -120 0 -120 -120 0 -120 0 0 120 0 120 -120 0 -120 0 0 120 0 120 -120 0
-120 0 0 120 0 120 -120 0 -120 0 0 240 0 240 120 0 120 0 0 -120 0 -120 120
0 120 0 0 -240 0 -240 120 0 120 0 0 120 0 120 120 0 120 0 0 120 0 120 -120
0 -120 0 0 120 0 120 240 0 240 0 0 120 0 120 360 0 360 0 0 120 0 120 120 0
120 0 0 120 0 120 -120 0 -120 0 0 360 0 360 -240 0 -240 0 0 120 0 120 -120
0 -120 0 0 120 0 120 -120 0 -120 0 0 -120 0 -120 -120 0 -120 0 0 120 0 120
120 0 120 0 0 120 0 120 -240 0 -240 0 0 120 0 120 240 0 240 0 0 -120 0 -120
120 0 120 0 0 -120 0 -120 120 0 120 0 0 -120 0 -120 120 0 120 0 0 120 0 120
120 0 120 0 0 120 0 120 480 0 480 0 0 120 0 120 120 0 120 0 0 240 0 240
-120 0 -120 0 0 120 0 120 120 0 120 0 0 -120 0 -120 240 0 240 0 0 -120 0
-120 120 0 120 0 0 120 0 120 240 0 240 0 0 120 0 120 -120 0 -120 0 0 120 0
120 -240 0 -240 0 0 120 0 120 -360 0 -360 0 0 120 0 120 -120 0 -120 0 0
-240 0 -240 -120 0 -120 0 0 120 0 120 -240 0 -240 0 0 -120 0 -120 -120 0
-120 0 0 -120 0 -120 -480 0 -480 0 0 -120 0 -120 240 0 240 0 0 -120 0 -120
120 0 120 0 0 -120 0 -120 120 0 120 0 0 -120 0 -120 -120 0 -120 0 0 120 0
120 -120 0 -120 0 0 120 0 120 -360 0 -360 0 0 240 0 240 -120 0 -120 0 0 120
0 120 120 0 120 0 0 120 0 120 120 0 120 0 0 120 0 120 120 0 120 0 0 -120 0
-120 240 0 240 0 0 -120 0 -120 120 0 120 0 0 240 0 240 -240 0 -240 0 0 120
0 120 240 0 240 0 0 120 0 120 -120 0 -120 0 0 120 0 120 120 0 120 0 0 -120
0 -120 120 0 120 0 0 -120 0 -120 -120 0 -120 0 0 -120 0 -120 240 0 240 0 0
240 0 240 120 0 120 0 0 120 0 120 -120 0 -120 0 0 120 0 120 -120 0 -120 0 0
240 0 240 240 0 240 0 0 -120 0 -120 120 0 120 0 0 240 0 240 120 0 120 0 0
-120 0 -120 120 0 120 0 0 240 0 240 -120 0 -120 0 0 120 0 120 240 0 240 0 0
-120z m-1680 -480 l0 -120 -120 0 -120 0 0 120 0 120 120 0 120 0 0 -120z m0
-480 l0 -120 -120 0 -120 0 0 120 0 120 120 0 120 0 0 -120z m5280 -120 l0
-240 -240 0 -240 0 0 120 0 120 120 0 120 0 0 120 0 120 120 0 120 0 0 -240z
m-240 -600 l0 -120 -120 0 -120 0 0 120 0 120 120 0 120 0 0 -120z m-6960
-720 l0 -120 -120 0 -120 0 0 120 0 120 120 0 120 0 0 -120z m8400 -120 l0
-240 120 0 120 0 0 120 0 120 240 0 240 0 0 -120 0 -120 -240 0 -240 0 0 -120
0 -120 -120 0 -120 0 0 -120 0 -120 -120 0 -120 0 0 -120 0 -120 120 0 120 0
0 -120 0 -120 -120 0 -120 0 0 -120 0 -120 120 0 120 0 0 -120 0 -120 120 0
120 0 0 -120 0 -120 -120 0 -120 0 0 120 0 120 -120 0 -120 0 0 120 0 120
-240 0 -240 0 0 240 0 240 -120 0 -120 0 0 120 0 120 -120 0 -120 0 0 360 0
360 120 0 120 0 0 -120 0 -120 120 0 120 0 0 -240 0 -240 240 0 240 0 0 120 0
120 -120 0 -120 0 0 240 0 240 120 0 120 0 0 120 0 120 120 0 120 0 0 -240z
m-5760 -360 l0 -120 120 0 120 0 0 -120 0 -120 -240 0 -240 0 0 -120 0 -120
-120 0 -120 0 0 120 0 120 -120 0 -120 0 0 120 0 120 120 0 120 0 0 120 0 120
240 0 240 0 0 -120z m4080 0 l0 -120 120 0 120 0 0 -120 0 -120 -120 0 -120 0
0 -240 0 -240 -120 0 -120 0 0 -120 0 -120 -120 0 -120 0 0 -120 0 -120 -120
0 -120 0 0 120 0 120 -240 0 -240 0 0 120 0 120 240 0 240 0 0 -120 0 -120
120 0 120 0 0 120 0 120 120 0 120 0 0 120 0 120 -120 0 -120 0 0 120 0 120
-120 0 -120 0 0 120 0 120 120 0 120 0 0 -120 0 -120 120 0 120 0 0 240 0 240
120 0 120 0 0 -120z m-6720 -1200 l0 -120 -120 0 -120 0 0 120 0 120 120 0
120 0 0 -120z m1200 -1440 l0 -120 -240 0 -240 0 0 120 0 120 240 0 240 0 0
-120z m6480 -480 l0 -120 120 0 120 0 0 120 0 120 120 0 120 0 0 -120 0 -120
-120 0 -120 0 0 -240 0 -240 -120 0 -120 0 0 240 0 240 -120 0 -120 0 0 120 0
120 120 0 120 0 0 -120z m720 -480 l0 -120 120 0 120 0 0 -120 0 -120 -120 0
-120 0 0 120 0 120 -120 0 -120 0 0 120 0 120 120 0 120 0 0 -120z m-720 -480
l0 -120 -120 0 -120 0 0 120 0 120 120 0 120 0 0 -120z m-480 -480 l0 -120
-120 0 -120 0 0 120 0 120 120 0 120 0 0 -120z m960 -240 l0 -360 -360 0 -360
0 0 360 0 360 360 0 360 0 0 -360z m960 240 l0 -120 -120 0 -120 0 0 -240 0
-240 -240 0 -240 0 0 120 0 120 120 0 120 0 0 120 0 120 -120 0 -120 0 0 120
0 120 360 0 360 0 0 -120z m-2400 -240 l0 -120 -120 0 -120 0 0 120 0 120 120
0 120 0 0 -120z m-4320 -240 l0 -120 -120 0 -120 0 0 120 0 120 120 0 120 0 0
-120z m240 -480 l0 -120 -240 0 -240 0 0 -120 0 -120 -120 0 -120 0 0 120 0
120 120 0 120 0 0 120 0 120 240 0 240 0 0 -120z m0 -480 l0 -120 -120 0 -120
0 0 120 0 120 120 0 120 0 0 -120z"/>
<path d="M5520 8520 l0 -120 -120 0 -120 0 0 -120 0 -120 120 0 120 0 0 -120
0 -120 -120 0 -120 0 0 -120 0 -120 -120 0 -120 0 0 -120 0 -120 120 0 120 0
0 120 0 120 240 0 240 0 0 240 0 240 120 0 120 0 0 120 0 120 -120 0 -120 0 0
120 0 120 -120 0 -120 0 0 -120z m240 -240 l0 -120 -120 0 -120 0 0 120 0 120
120 0 120 0 0 -120z"/>
<path d="M2880 8280 l0 -120 120 0 120 0 0 120 0 120 -120 0 -120 0 0 -120z"/>
<path d="M3360 8040 l0 -360 120 0 120 0 0 -240 0 -240 240 0 240 0 0 120 0
120 -120 0 -120 0 0 240 0 240 -120 0 -120 0 0 240 0 240 -120 0 -120 0 0
-360z"/>
<path d="M4320 8280 l0 -120 120 0 120 0 0 120 0 120 -120 0 -120 0 0 -120z"/>
<path d="M1440 6840 l0 -120 -120 0 -120 0 0 -120 0 -120 120 0 120 0 0 120 0
120 120 0 120 0 0 120 0 120 -120 0 -120 0 0 -120z"/>
<path d="M5280 6360 l0 -120 -120 0 -120 0 0 -120 0 -120 120 0 120 0 0 120 0
120 120 0 120 0 0 120 0 120 -120 0 -120 0 0 -120z"/>
<path d="M3840 5640 l0 -120 -120 0 -120 0 0 -120 0 -120 -240 0 -240 0 0
-120 0 -120 -240 0 -240 0 0 -120 0 -120 120 0 120 0 0 -120 0 -120 120 0 120
0 0 -240 0 -240 120 0 120 0 0 -120 0 -120 120 0 120 0 0 -120 0 -120 120 0
120 0 0 120 0 120 -120 0 -120 0 0 240 0 240 240 0 240 0 0 -480 0 -480 120 0
120 0 0 120 0 120 120 0 120 0 0 360 0 360 -120 0 -120 0 0 120 0 120 -120 0
-120 0 0 120 0 120 120 0 120 0 0 120 0 120 120 0 120 0 0 120 0 120 -120 0
-120 0 0 -120 0 -120 -120 0 -120 0 0 240 0 240 360 0 360 0 0 -120 0 -120
120 0 120 0 0 240 0 240 -600 0 -600 0 0 -120z m240 -720 l0 -120 -120 0 -120
0 0 -120 0 -120 -120 0 -120 0 0 240 0 240 240 0 240 0 0 -120z"/>
<path d="M5040 4920 l0 -120 -240 0 -240 0 0 -120 0 -120 240 0 240 0 0 -120
0 -120 -120 0 -120 0 0 -120 0 -120 240 0 240 0 0 240 0 240 120 0 120 0 0
120 0 120 120 0 120 0 0 -120 0 -120 120 0 120 0 0 120 0 120 -120 0 -120 0 0
120 0 120 -120 0 -120 0 0 -120 0 -120 -120 0 -120 0 0 120 0 120 -120 0 -120
0 0 -120z m240 -240 l0 -120 -120 0 -120 0 0 120 0 120 120 0 120 0 0 -120z"/>
<path d="M5520 3720 l0 -120 -120 0 -120 0 0 -120 0 -120 -120 0 -120 0 0 120
0 120 -120 0 -120 0 0 -120 0 -120 -120 0 -120 0 0 -120 0 -120 120 0 120 0 0
120 0 120 120 0 120 0 0 -120 0 -120 120 0 120 0 0 120 0 120 120 0 120 0 0
-240 0 -240 120 0 120 0 0 120 0 120 240 0 240 0 0 -120 0 -120 120 0 120 0 0
120 0 120 -120 0 -120 0 0 120 0 120 120 0 120 0 0 120 0 120 -360 0 -360 0 0
120 0 120 -120 0 -120 0 0 -120z"/>
<path d="M2640 3480 l0 -120 120 0 120 0 0 120 0 120 -120 0 -120 0 0 -120z"/>
<path d="M1920 3000 l0 -120 120 0 120 0 0 120 0 120 -120 0 -120 0 0 -120z"/>
<path d="M2640 2160 l0 -240 120 0 120 0 0 240 0 240 -120 0 -120 0 0 -240z"/>
<path d="M5280 1080 l0 -120 240 0 240 0 0 -120 0 -120 120 0 120 0 0 120 0
120 -120 0 -120 0 0 120 0 120 -240 0 -240 0 0 -120z"/>
<path d="M8640 6360 l0 -120 120 0 120 0 0 120 0 120 -120 0 -120 0 0 -120z"/>
<path d="M8400 5640 l0 -120 120 0 120 0 0 120 0 120 -120 0 -120 0 0 -120z"/>
<path d="M2640 6120 l0 -120 120 0 120 0 0 120 0 120 -120 0 -120 0 0 -120z"/>
<path d="M8160 1560 l0 -120 120 0 120 0 0 120 0 120 -120 0 -120 0 0 -120z"/>
<path d="M2640 9720 l0 -120 120 0 120 0 0 120 0 120 -120 0 -120 0 0 -120z"/>
<path d="M5760 9720 l0 -120 120 0 120 0 0 120 0 120 -120 0 -120 0 0 -120z"/>
<path d="M8160 9000 l0 -840 840 0 840 0 0 840 0 840 -840 0 -840 0 0 -840z
m1440 0 l0 -600 -600 0 -600 0 0 600 0 600 600 0 600 0 0 -600z"/>
<path d="M8640 9000 l0 -360 360 0 360 0 0 360 0 360 -360 0 -360 0 0 -360z"/>
<path d="M9120 7440 l0 -240 120 0 120 0 0 120 0 120 240 0 240 0 0 120 0 120
-360 0 -360 0 0 -240z"/>
<path d="M0 2520 l0 -120 120 0 120 0 0 120 0 120 -120 0 -120 0 0 -120z"/>
<path d="M0 840 l0 -840 840 0 840 0 0 840 0 840 -840 0 -840 0 0 -840z m1440
0 l0 -600 -600 0 -600 0 0 600 0 600 600 0 600 0 0 -600z"/>
<path d="M480 840 l0 -360 360 0 360 0 0 360 0 360 -360 0 -360 0 0 -360z"/>
</g>
</g></svg>
